<?xml version="1.0" standalone="no"?>
<!DOCTYPE svg PUBLIC "-//W3C//DTD SVG 20010904//EN"
 "http://www.w3.org/TR/2001/REC-SVG-20010904/DTD/svg10.dtd">
<svg version="1.0" xmlns="http://www.w3.org/2000/svg"
 width="500.000000pt" height="500.000000pt" viewBox="0 0 500.000000 500.000000"
 preserveAspectRatio="xMidYMid meet">

<g transform="translate(0.000000,500.000000) scale(0.100000,-0.100000)"
fill="#EBEBEB" stroke="none">
<path d="M717 4063 c-3 -6 982 -2728 1055 -2917 2 -4 241 646 532 1445 291
800 531 1460 533 1467 4 9 -170 12 -851 12 l-856 0 0 -65 0 -65 760 0 c479 0
760 -4 760 -10 0 -9 -833 -2307 -862 -2379 -14 -34 -16 -28 -462 1200 -247
679 -457 1253 -467 1277 l-18 42 -60 0 c-33 0 -62 -3 -64 -7z"/>
<path d="M2765 2613 c-292 -802 -530 -1459 -530 -1462 0 -13 122 -12 132 1 5
7 216 581 468 1276 254 698 462 1257 466 1250 12 -24 869 -2385 869 -2397 0
-8 -204 -11 -765 -11 l-766 0 3 -62 3 -63 858 -3 c471 -1 857 0 857 2 0 5
-1060 2919 -1063 2923 -2 1 -241 -653 -532 -1454z"/>
</g>
</svg>
