<svg xmlns="http://www.w3.org/2000/svg" version="1.1" xmlns:xlink="http://www.w3.org/1999/xlink" xmlns:svgjs="http://svgjs.dev/svgjs" width="1000" height="888" viewBox="0 0 1000 888"><g transform="matrix(1,0,0,1,0.372360958522961,0.3595332697252047)"><svg viewBox="0 0 278 247" data-background-color="#000000" preserveAspectRatio="xMidYMid meet" height="888" width="1000" xmlns="http://www.w3.org/2000/svg" xmlns:xlink="http://www.w3.org/1999/xlink"><g id="tight-bounds" transform="matrix(1,0,0,1,-0.10351634646937669,-0.10000531263753487)"><svg viewBox="0 0 278.2070328189231 247.2" height="247.2" width="278.2070328189231"><g><svg viewBox="0 0 278.2070328189231 247.2" height="247.2" width="278.2070328189231"><g><svg viewBox="0 0 278.2070328189231 247.2" height="247.2" width="278.2070328189231"><g><svg viewBox="0 0 278.2070328189231 247.2" height="247.2" width="278.2070328189231"><g><svg viewBox="0 0 278.2070328189231 247.2" height="247.2" width="278.2070328189231"><g><svg viewBox="0 0 278.2070328189231 247.2" height="247.2" width="278.2070328189231"><g transform="matrix(1,0,0,1,0,0)"><svg width="278.2070328189231" viewBox="0.2696428894996643 -35.150001525878906 39.95119094848633 35.5" height="247.2" data-palette-color="#22c55e"><path d="M9.55 0.35L9.55 0.35Q8.45 0.35 7.83-0.48 7.2-1.3 6.9-2.6L6.9-2.6Q6.4-4.65 5.75-7.7 5.1-10.75 4.38-14.25 3.65-17.75 2.93-21.2 2.2-24.65 1.63-27.48 1.05-30.3 0.7-32.02 0.35-33.75 0.35-33.75L0.35-33.75Q0.2-34.45 0.33-34.73 0.45-35 1.35-35L1.35-35 5.15-35 8.75-16.65Q9.2-14.4 9.53-12.03 9.85-9.65 10.15-7.55 10.45-5.45 10.7-3.85L10.7-3.85Q10.85-5.45 11.13-7.55 11.4-9.65 11.73-12.03 12.05-14.4 12.45-16.65L12.45-16.65 15.65-33.7Q15.75-34.35 15.95-34.68 16.15-35 16.8-35L16.8-35 20.75-35 13.45 0.1Q12.5 0.2 11.68 0.28 10.85 0.35 9.55 0.35ZM21.65 0.1L21.65 0.1Q21.25 0.1 20.42 0.05 19.6 0 18.8-0.1L18.8-0.1 27.55-34.3Q27.7-35.15 29.3-35.15L29.3-35.15Q29.9-35.15 30.47-35.1 31.05-35.05 31.45-34.95L31.45-34.95 40.2-0.8Q40.3-0.35 39.92-0.13 39.55 0.1 38.2 0.1L38.2 0.1Q37.75 0.1 37.07 0.08 36.4 0.05 35.5 0L35.5 0 31.15-19Q30.85-20.6 30.5-22.3 30.15-24 29.92-25.65 29.7-27.3 29.55-28.6L29.55-28.6Q29.45-27.3 29.17-25.65 28.9-24 28.6-22.3 28.3-20.6 27.95-19L27.95-19 23.8-0.8Q23.7-0.35 23.37-0.13 23.05 0.1 21.65 0.1ZM35.85-8.55L24.1-8.55 24.1-12.7 35.85-12.7 35.85-8.55Z" opacity="1" transform="matrix(1,0,0,1,0,0)" fill="#22c55e" class="undefined-text-0" data-fill-palette-color="primary" id="text-0"></path></svg></g></svg></g></svg></g></svg></g></svg></g><g></g></svg></g><defs></defs></svg><rect width="278.2070328189231" height="247.2" fill="none" stroke="none" visibility="hidden"></rect></g></svg></g></svg>